<?xml version="1.0" encoding="UTF-8" standalone="no"?>
<svg
   xmlns:dc="http://purl.org/dc/elements/1.1/"
   xmlns:cc="http://creativecommons.org/ns#"
   xmlns:rdf="http://www.w3.org/1999/02/22-rdf-syntax-ns#"
   xmlns:svg="http://www.w3.org/2000/svg"
   xmlns="http://www.w3.org/2000/svg"
   id="svg4775"
   version="1.1"
   viewBox="0 0 940.00001 567.00002"
   height="567"
   width="940">
  <defs
     id="defs4769">
    <clipPath
       id="clipPath134"
       clipPathUnits="userSpaceOnUse">
      <path
         id="path132"
         d="m 66.18,37.504 h 5.734 v 19.39 H 66.18 Z" />
    </clipPath>
    <clipPath
       id="clipPath124"
       clipPathUnits="userSpaceOnUse">
      <path
         id="path122"
         d="m 76.974,54.023 c -1.965,-1.915 -2.948,-4.166 -2.948,-6.755 v 0 c 0,-2.681 0.949,-4.98 2.85,-6.893 v 0 c 1.899,-1.914 4.216,-2.871 6.949,-2.871 v 0 c 1.609,0 3.154,0.37 4.632,1.109 v 0 c 1.479,0.74 2.648,1.784 3.51,3.134 v 0 c 0.059,0.089 0.11,0.18 0.165,0.27 v 0 l -5.102,2.879 c -0.135,-0.197 -0.286,-0.385 -0.454,-0.56 v 0 c -0.674,-0.708 -1.591,-1.062 -2.751,-1.062 v 0 c -1.048,0 -1.97,0.379 -2.766,1.137 v 0 c -0.795,0.758 -1.193,1.665 -1.193,2.718 v 0 c 0,1.036 0.383,1.956 1.151,2.761 v 0 c 0.768,0.804 1.694,1.207 2.78,1.207 v 0 c 0.935,0 1.717,-0.246 2.345,-0.736 v 0 c 0.147,-0.116 0.287,-0.241 0.42,-0.373 v 0 l 5.139,2.99 c -0.439,0.592 -0.935,1.142 -1.503,1.641 v 0 c -1.723,1.517 -3.847,2.275 -6.373,2.275 v 0 c -2.603,0 -4.886,-0.957 -6.851,-2.871" />
    </clipPath>
    <clipPath
       id="clipPath114"
       clipPathUnits="userSpaceOnUse">
      <path
         id="path112"
         d="m 94.547,56.894 v -19.39 h 5.615 v 14.157 l 1.39,-0.029 h 0.071 0.071 c 0.397,-0.02 0.756,-0.136 1.078,-0.348 v 0 c 0.321,-0.214 0.481,-0.553 0.481,-1.018 v 0 c 0,-0.64 -0.207,-1.057 -0.623,-1.25 v 0 c -0.416,-0.195 -0.871,-0.301 -1.362,-0.321 v 0 h -0.156 c -0.047,0 -0.09,0.01 -0.128,0.03 v 0 -4.971 l 2.724,-6.25 h 5.927 l -3.261,7.966 c 0.812,0.639 1.432,1.405 1.857,2.296 v 0 c 0.426,0.891 0.639,1.85 0.639,2.878 v 0 c 0,1.782 -0.681,3.265 -2.043,4.447 v 0 c -1.361,1.182 -2.864,1.783 -4.51,1.803 v 0 z" />
    </clipPath>
    <clipPath
       id="clipPath104"
       clipPathUnits="userSpaceOnUse">
      <path
         id="path102"
         d="m 123.435,55.002 c -1.234,-1.261 -1.85,-2.749 -1.85,-4.46 v 0 c 0,-0.724 0.106,-1.397 0.319,-2.019 v 0 c 0.213,-0.622 0.441,-1.184 0.682,-1.684 v 0 c 0.26,-0.502 0.492,-0.952 0.695,-1.351 v 0 c 0.205,-0.399 0.307,-0.747 0.307,-1.044 v 0 c 0,-0.391 -0.153,-0.715 -0.459,-0.975 v 0 c -0.306,-0.26 -0.645,-0.417 -1.016,-0.473 v 0 h -0.111 -0.111 c -0.242,0 -0.479,0.041 -0.71,0.125 v 0 c -0.233,0.083 -0.459,0.199 -0.682,0.347 v 0 -5.382 c 0.389,-0.166 0.793,-0.305 1.211,-0.416 v 0 c 0.417,-0.111 0.839,-0.166 1.266,-0.166 v 0 c 1.818,0 3.405,0.607 4.758,1.82 v 0 c 1.355,1.214 2.032,2.747 2.032,4.6 v 0 c 0,0.648 -0.107,1.265 -0.319,1.849 v 0 c -0.214,0.583 -0.451,1.135 -0.71,1.653 v 0 c -0.261,0.501 -0.497,0.96 -0.71,1.377 v 0 c -0.213,0.417 -0.321,0.782 -0.321,1.097 v 0 c 0,0.407 0.149,0.774 0.446,1.099 v 0 c 0.297,0.323 0.658,0.485 1.085,0.485 v 0 c 0.149,0 0.302,-0.023 0.46,-0.069 v 0 c 0.157,-0.047 0.31,-0.088 0.458,-0.124 v 0 5.215 c -0.352,0.128 -0.719,0.226 -1.099,0.29 v 0 c -0.38,0.065 -0.765,0.098 -1.154,0.098 v 0 c -1.744,0 -3.233,-0.63 -4.467,-1.892 m 6.72,1.504 v 0.027 z" />
    </clipPath>
    <clipPath
       id="clipPath94"
       clipPathUnits="userSpaceOnUse">
      <path
         id="path92"
         d="m 134.931,54.918 c -1.279,-1.318 -1.918,-3.047 -1.918,-5.188 v 0 -12.226 h 5.753 v 4.521 h 1.546 V 47 h -1.546 v 2.701 c 0,0.398 0.105,0.753 0.315,1.066 v 0 c 0.209,0.312 0.524,0.469 0.944,0.469 v 0 c 0.362,-0.019 0.634,-0.17 0.816,-0.454 v 0 c 0.181,-0.286 0.281,-0.589 0.3,-0.91 v 0 -0.142 -12.226 h 5.753 v 12.197 c 0,1.952 -0.615,3.639 -1.846,5.06 v 0 c -1.231,1.422 -2.867,2.133 -4.909,2.133 v 0 c -2.194,0 -3.93,-0.658 -5.208,-1.976" />
    </clipPath>
    <clipPath
       id="clipPath84"
       clipPathUnits="userSpaceOnUse">
      <path
         id="path82"
         d="m 148.785,56.894 v -5.523 h 4.395 V 37.504 h 5.754 v 13.867 h 4.337 v 5.523 z" />
    </clipPath>
    <clipPath
       id="clipPath74"
       clipPathUnits="userSpaceOnUse">
      <path
         id="path72"
         d="m 112.058,56.614 c -0.001,-6.253 -0.008,-19.11 -0.008,-19.11 v 0 h 5.734 c 0,0 -0.008,7.561 -0.005,11.11 v 0 c 0,0.36 -0.064,0.702 -0.194,1.043 v 0 c -0.482,1.25 -1.214,2.353 -2.056,3.394 v 0 c -1.057,1.305 -2.369,2.392 -3.444,3.843 v 0 c -0.017,-0.173 -0.027,-0.227 -0.027,-0.28" />
    </clipPath>
    <clipPath
       id="clipPath64"
       clipPathUnits="userSpaceOnUse">
      <path
         id="path62"
         d="m 115.678,65.383 c -1.382,-0.011 -2.407,-1.016 -2.421,-2.431 v 0 c -0.014,-1.336 1.052,-2.44 2.411,-2.414 v 0 c 1.327,-0.049 2.348,1.085 2.412,2.221 v 0 c 0.09,1.575 -1.09,2.624 -2.381,2.624 v 0 c -0.007,0 -0.014,0 -0.021,0" />
    </clipPath>
    <clipPath
       id="clipPath52"
       clipPathUnits="userSpaceOnUse">
      <path
         id="path50"
         d="m 113.348,71.307 c -0.348,-0.318 -0.645,-0.681 -0.94,-1.045 v 0 c -0.706,-0.87 -1.255,-1.828 -1.65,-2.87 v 0 c -0.315,-0.829 -0.509,-1.689 -0.552,-2.57 v 0 c -0.04,-0.798 0.013,-1.597 0.2,-2.381 v 0 c 0.182,-0.755 0.433,-1.488 0.781,-2.183 v 0 c 0.526,-1.052 1.17,-2.024 1.969,-2.898 v 0 c 0.493,-0.539 0.998,-1.068 1.513,-1.586 v 0 c 0.563,-0.565 1.192,-1.064 1.697,-1.688 v 0 c 0.314,-0.387 0.611,-0.782 0.868,-1.206 v 0 c 0.158,-0.262 0.298,-0.532 0.424,-0.835 v 0 c 0.342,0.714 0.51,1.444 0.548,2.202 v 0 c 0.019,0.414 -0.016,0.825 -0.118,1.228 v 0 c -0.187,0.744 -0.536,1.4 -1.086,1.948 v 0 c -0.362,0.361 -0.744,0.7 -1.128,1.039 v 0 c -0.299,0.264 -0.599,0.529 -0.915,0.773 v 0 c -0.487,0.378 -0.956,0.775 -1.358,1.24 v 0 c -0.536,0.62 -0.997,1.287 -1.334,2.035 v 0 c -0.34,0.754 -0.548,1.536 -0.571,2.362 v 0 c -0.017,0.586 0.054,1.166 0.132,1.747 v 0 c 0.065,0.495 0.164,0.983 0.281,1.467 v 0 c 0.175,0.733 0.413,1.448 0.729,2.135 v 0 c 0.179,0.388 0.377,0.767 0.594,1.144 v 0 c -0.028,-0.019 -0.06,-0.035 -0.084,-0.058" />
    </clipPath>
    <clipPath
       id="clipPath42"
       clipPathUnits="userSpaceOnUse">
      <path
         id="path40"
         d="m 110.573,35.068 c -2.201,-0.029 -4.278,-0.058 -6.133,-0.084 v 0 c -1.855,-0.031 -3.489,-0.042 -4.805,-0.079 v 0 C 98.32,34.872 97.322,34.85 96.743,34.849 v 0 c -1.705,-0.076 -3.399,-0.152 -5.088,-0.226 v 0 c -0.844,-0.04 -1.686,-0.079 -2.527,-0.119 v 0 c -0.841,-0.052 -1.679,-0.103 -2.517,-0.155 v 0 C 84.936,34.24 83.265,34.131 81.599,34.022 v 0 c -0.833,-0.06 -1.665,-0.118 -2.497,-0.177 v 0 l -1.247,-0.09 -1.246,-0.109 C 73.287,33.35 69.971,33.027 66.65,32.67 v 0 c -3.321,-0.4 -1.946,-0.45 -1.34,-0.51 v 0 c 0.607,-0.06 0.849,-0.043 1.619,-0.095 v 0 c 0.072,-0.023 2.152,0.039 2.427,0.047 v 0 c 0.273,0.008 1.73,0.067 2.337,0.053 v 0 c 0.608,-0.014 0.859,-0.019 1.778,-0.012 v 0 c 1.386,0.061 2.881,0.126 2.682,0.095 v 0 c 0.654,0.033 1.359,0.078 2.09,0.107 v 0 c 0.731,0.031 1.49,0.061 2.25,0.093 v 0 c 1.519,0.061 3.048,0.122 4.39,0.176 v 0 c 0.906,0.032 1.83,0.065 2.763,0.099 v 0 c 0.466,0.015 0.936,0.032 1.405,0.048 v 0 c 0.468,0.011 0.939,0.021 1.409,0.032 v 0 c 8.896,0.241 17.103,0.383 25.177,0.41 v 0 c 0.612,0.005 1.274,0.01 2.017,0.017 v 0 c 0.029,-0.003 0.078,-0.007 0.264,-0.009 v 0 c 0.239,0.001 0.482,0.002 0.725,0.002 v 0 c 1.645,0.012 3.232,0.024 4.379,0.033 v 0 c 0.274,-0.003 0.24,-0.007 0.167,-0.013 v 0 c 2.754,-0.011 5.52,-0.022 8.299,-0.034 v 0 c 1.51,0.003 2.989,0.009 4.407,-0.009 v 0 c 0.045,-0.004 0.088,-0.01 0.13,-0.014 v 0 c 1.834,-0.018 3.306,-0.031 5.137,-0.049 v 0 c 0.583,-0.01 0.207,-0.013 0.219,-0.021 v 0 c 0.878,-0.009 1.757,-0.018 2.635,-0.029 v 0 l 1.319,-0.015 c 0.438,-0.007 0.875,-0.029 1.314,-0.044 v 0 c 1.751,-0.066 3.504,-0.131 5.258,-0.197 v 0 c 3.511,-0.127 7.022,-0.254 10.527,-0.381 v 0 c 0.431,-0.014 1.033,-0.034 1.943,-0.031 v 0 c 0.183,0.01 0.911,0.154 -2.758,0.465 v 0 c -0.659,0.071 -5.316,0.6 -6.982,0.782 v 0 c -3.648,0.36 -8.926,0.873 -13.289,0.966 v 0 c -0.242,0.011 -0.484,0.022 -0.726,0.032 v 0 c -1,0.033 -2.361,0.077 -3.987,0.129 v 0 c -0.813,0.024 -1.694,0.057 -2.628,0.078 v 0 c -0.933,0.019 -1.921,0.04 -2.952,0.061 v 0 c -2.061,0.036 -4.29,0.075 -6.589,0.116 v 0 c -1.15,0.02 -2.32,0.025 -3.494,0.028 v 0 c -1.175,0.002 -2.356,0.005 -3.529,0.008 v 0 c -1.174,10e-4 -2.342,0.002 -3.49,0.003 v 0 c -0.253,0 -0.503,0 -0.754,0 v 0 c -0.89,0 -1.767,-0.002 -2.626,-0.019" />
    </clipPath>
    <clipPath
       id="clipPath32"
       clipPathUnits="userSpaceOnUse">
      <path
         id="path30"
         d="m 62.858,71.088 c -0.4,-1.545 -0.659,-1.833 -0.659,-1.833 v 0 c -1.085,-2.248 -3.136,-2.537 -3.136,-2.537 v 0 L 54.631,65.92 C 52.625,65.459 52.414,63.6 52.414,63.6 v 0 l -0.777,-5.604 c 0.447,1.45 1.957,1.521 1.957,1.521 v 0 l 3.77,0.603 c 2.642,0.387 3.111,2.754 3.111,2.754 v 0 L 63,70.992 c 0.143,0.218 0,0.291 0,0.291 v 0 c -0.008,0.008 -0.017,0.011 -0.025,0.011 v 0 c -0.062,0 -0.117,-0.206 -0.117,-0.206 m -0.895,-6.86 c -0.119,0.025 -0.236,-0.531 -0.236,-0.531 v 0 l -0.331,-1.039 c -0.989,-2.44 -3.442,-2.924 -3.442,-2.924 v 0 l -4.197,-0.698 c -1.98,-0.365 -2.24,-2.367 -2.24,-2.367 v 0 l -0.73,-5.488 c 0.376,1.353 2.217,1.475 2.217,1.475 v 0 l 3.725,0.508 c 2.239,0.628 2.736,2.777 2.736,2.777 v 0 l 2.428,7.709 c 0.23,0.532 0.131,0.58 0.087,0.58 v 0 c -0.01,0 -0.017,-0.002 -0.017,-0.002 M 60.761,56.812 60.43,55.7 c -0.991,-2.44 -3.584,-2.995 -3.584,-2.995 v 0 L 52.79,52.101 c -1.957,-0.363 -2.217,-2.394 -2.217,-2.394 v 0 l -0.729,-5.483 c 0.377,1.716 2.217,1.667 2.217,1.667 v 0 l 3.582,0.459 c 2.288,0.435 2.879,2.634 2.879,2.634 v 0 l 2.428,7.73 c 0,0 0.213,0.556 0.045,0.556 v 0 c 0,0 -0.008,0.006 -0.022,0.006 v 0 c -0.039,0 -0.126,-0.053 -0.212,-0.464 m -20.32,-9.158 c 0.496,-8.962 8.796,-8.937 8.796,-8.937 v 0 l 4.974,0.726 c 2.664,0.241 3.394,3.14 3.394,3.14 v 0 l 2.099,6.666 c 0.591,1.233 0.259,1.112 0.259,1.112 v 0 c -0.14,0.047 -0.353,-0.774 -0.353,-0.774 v 0 l -0.542,-1.378 c -0.799,-1.663 -3.065,-2.222 -3.065,-2.222 v 0 l -4.104,-0.578 c -1.744,-0.123 -2.238,-2.391 -2.238,-2.391 v 0 l -0.472,-3.456 -0.567,17.032 c -8.772,-1.089 -8.181,-8.94 -8.181,-8.94 m 6.47,-11.712 c 0,-1.161 0.932,-2.085 2.073,-2.085 v 0 c 1.14,0 2.049,0.924 2.049,2.085 v 0 c 0,1.16 -0.909,2.108 -2.049,2.108 v 0 c -1.141,0 -2.073,-0.948 -2.073,-2.108 m 8.643,-0.211 c -1.481,-1.108 -3.085,-1.95 -4.88,-2.416 v 0 c -1.42,-0.37 -2.802,-0.868 -4.149,-1.462 v 0 C 45.457,31.382 44.418,30.858 43.48,30.15 v 0 c 0.022,0.008 0.045,0.015 0.067,0.023 v 0 c 1.151,0.401 2.33,0.681 3.53,0.868 v 0 c 0.824,0.128 1.648,0.251 2.456,0.468 v 0 c 1.573,0.422 3.024,1.093 4.277,2.167 v 0 c 0.859,0.736 1.635,1.556 2.372,2.416 v 0 c 0.054,0.065 0.108,0.13 0.163,0.196 v 0 c -0.273,-0.177 -0.534,-0.365 -0.791,-0.557" />
    </clipPath>
    <clipPath
       id="clipPath20"
       clipPathUnits="userSpaceOnUse">
      <path
         id="path18"
         d="M 38.956,28.186 H 365.363 V 72.751 H 38.956 Z" />
    </clipPath>
  </defs>
  <metadata
     id="metadata4772">
    <rdf:RDF>
      <cc:Work
         rdf:about="">
        <dc:format>image/svg+xml</dc:format>
        <dc:type
           rdf:resource="http://purl.org/dc/dcmitype/StillImage" />
        <dc:title></dc:title>
      </cc:Work>
    </rdf:RDF>
  </metadata>
  <g
     transform="translate(0,-555.51958)"
     id="layer1">
    <g
       transform="matrix(3.6140302,0,0,3.6140302,1192.8061,-873.84337)"
       id="g5486">
      <g
         transform="matrix(1.3333333,0,0,-1.3333333,-336.40169,541.62482)"
         id="g14">
        <g
           id="g16"
           clip-path="url(#clipPath20)">
          <g
             id="g22"
             transform="translate(48.6189,56.5853)">
            <path
               d="m 0,0 c -4.766,-0.187 -8.575,-4.098 -8.575,-8.91 0,-5.045 4.085,-9.15 9.173,-8.958 z"
               style="fill:#277f3e;fill-opacity:1;fill-rule:nonzero;stroke:none"
               id="path24" />
          </g>
        </g>
      </g>
      <g
         transform="matrix(1.3333333,0,0,-1.3333333,-336.40169,541.62482)"
         id="g26">
        <g
           id="g28"
           clip-path="url(#clipPath32)">
          <path
             d="M 37.004,74.724 H 66.492 V 26.722 H 37.004 Z"
             style="fill:#277f3e;fill-opacity:1;fill-rule:nonzero;stroke:none"
             id="path34" />
        </g>
      </g>
      <g
         transform="matrix(1.3333333,0,0,-1.3333333,-336.40169,541.62482)"
         id="g36">
        <g
           id="g38"
           clip-path="url(#clipPath42)">
          <path
             d="M 60.94,38.516 H 167.987 V 28.629 H 60.94 Z"
             style="fill:#f57b21;fill-opacity:1;fill-rule:nonzero;stroke:none"
             id="path44" />
        </g>
      </g>
      <g
         transform="matrix(1.3333333,0,0,-1.3333333,-336.40169,541.62482)"
         id="g46">
        <g
           id="g48"
           clip-path="url(#clipPath52)">
          <g
             id="g54"
             transform="translate(106.5821,74.6744)">
            <path
               d="M 0,0 14.702,0.257 15.16,-25.987 0.458,-26.244 Z"
               style="fill:#64c53d;fill-opacity:1;fill-rule:nonzero;stroke:none"
               id="path56" />
          </g>
        </g>
      </g>
      <g
         transform="matrix(1.3333333,0,0,-1.3333333,-336.40169,541.62482)"
         id="g58">
        <g
           id="g60"
           clip-path="url(#clipPath64)">
          <path
             d="m 109.828,68.813 h 11.686 V 57.108 h -11.686 z"
             style="fill:#f57b21;fill-opacity:1;fill-rule:nonzero;stroke:none"
             id="path66" />
        </g>
      </g>
      <g
         transform="matrix(1.3333333,0,0,-1.3333333,-336.40169,541.62482)"
         id="g68">
        <g
           id="g70"
           clip-path="url(#clipPath74)">
          <path
             d="m 108.621,60.322 h 12.592 V 34.074 h -12.592 z"
             style="fill:#277f3e;fill-opacity:1;fill-rule:nonzero;stroke:none"
             id="path76" />
        </g>
      </g>
      <g
         transform="matrix(1.3333333,0,0,-1.3333333,-336.40169,541.62482)"
         id="g78">
        <g
           id="g80"
           clip-path="url(#clipPath84)">
          <path
             d="M 145.357,60.322 H 166.7 V 34.074 h -21.343 z"
             style="fill:#277f3e;fill-opacity:1;fill-rule:nonzero;stroke:none"
             id="path86" />
        </g>
      </g>
      <g
         transform="matrix(1.3333333,0,0,-1.3333333,-336.40169,541.62482)"
         id="g88">
        <g
           id="g90"
           clip-path="url(#clipPath94)">
          <path
             d="m 129.584,60.322 h 20.739 V 34.074 h -20.739 z"
             style="fill:#277f3e;fill-opacity:1;fill-rule:nonzero;stroke:none"
             id="path96" />
        </g>
      </g>
      <g
         transform="matrix(1.3333333,0,0,-1.3333333,-336.40169,541.62482)"
         id="g98">
        <g
           id="g100"
           clip-path="url(#clipPath104)">
          <path
             d="m 117.07,60.322 h 16.514 V 34.074 H 117.07 Z"
             style="fill:#277f3e;fill-opacity:1;fill-rule:nonzero;stroke:none"
             id="path106" />
        </g>
      </g>
      <g
         transform="matrix(1.3333333,0,0,-1.3333333,-336.40169,541.62482)"
         id="g108">
        <g
           id="g110"
           clip-path="url(#clipPath114)">
          <path
             d="m 91.118,60.322 h 21.946 V 34.074 H 91.118 Z"
             style="fill:#277f3e;fill-opacity:1;fill-rule:nonzero;stroke:none"
             id="path116" />
        </g>
      </g>
      <g
         transform="matrix(1.3333333,0,0,-1.3333333,-336.40169,541.62482)"
         id="g118">
        <g
           id="g120"
           clip-path="url(#clipPath124)">
          <path
             d="M 70.597,60.322 H 95.561 V 34.074 H 70.597 Z"
             style="fill:#277f3e;fill-opacity:1;fill-rule:nonzero;stroke:none"
             id="path126" />
        </g>
      </g>
      <g
         transform="matrix(1.3333333,0,0,-1.3333333,-336.40169,541.62482)"
         id="g128">
        <g
           id="g130"
           clip-path="url(#clipPath134)">
          <path
             d="M 62.751,60.322 H 75.342 V 34.074 H 62.751 Z"
             style="fill:#277f3e;fill-opacity:1;fill-rule:nonzero;stroke:none"
             id="path136" />
        </g>
      </g>
    </g>
  </g>
</svg>
