<?xml version="1.0" encoding="UTF-8" standalone="no"?>
<svg
   xmlns:dc="http://purl.org/dc/elements/1.1/"
   xmlns:cc="http://creativecommons.org/ns#"
   xmlns:rdf="http://www.w3.org/1999/02/22-rdf-syntax-ns#"
   xmlns:svg="http://www.w3.org/2000/svg"
   xmlns="http://www.w3.org/2000/svg"
   height="567"
   width="940"
   xml:space="preserve"
   viewBox="0 0 940 567"
   y="0px"
   x="0px"
   id="Layer_1"
   version="1.1"><metadata
     id="metadata97"><rdf:RDF><cc:Work
         rdf:about=""><dc:format>image/svg+xml</dc:format><dc:type
           rdf:resource="http://purl.org/dc/dcmitype/StillImage" /><dc:title></dc:title></cc:Work></rdf:RDF></metadata><defs
     id="defs95" /><style
     id="style2"
     type="text/css">
	.st0{fill:#B31B1B;}
</style><g
     transform="matrix(4.1946309,0,0,4.1946309,218.74161,31.822146)"
     id="g90"><path
       style="fill:#b31b1b"
       id="path4"
       d="m 45.9,91.7 c 6.8,5.3 13.5,8.2 13.8,8.3 l 0.5,0.2 0.5,-0.2 C 61,99.9 67.6,97 74.4,91.7 83.5,84.6 88.3,76.5 88.3,68.2 V 30.6 H 31.9 v 37 c 0,8.5 4.8,16.9 14,24.1 z M 58.8,80.1 c -0.3,-0.1 -0.6,-0.2 -1,-0.2 0,0 0,0 -0.1,0 -1.4,0 -2.4,0.1 -3.5,0.2 -1.1,0.1 -2.2,0.2 -3.8,0.2 -0.7,0 -1.4,0 -1.9,0 V 62.7 c 0.1,0 0.2,0 0.2,0 0.7,0 1.5,0 2.6,0 0.9,0 1.9,-0.1 3,-0.2 0.6,-0.1 1.3,-0.1 2,-0.2 1.2,-0.1 2.2,0.1 2.2,0.1 0.1,0 0.2,0.1 0.3,0.1 0,-0.1 0,17.6 0,17.6 z M 85.6,68.2 C 85.6,83.6 66.7,94 61.1,96.8 v -14 c 0.1,-0.1 0.2,-0.2 0.3,-0.3 0.3,-0.3 0.5,-0.5 1,-0.5 1.3,0 2.3,0.1 3.4,0.2 1.1,0.1 2.2,0.2 3.9,0.2 1.7,0 3,0 3,0 h 0.9 v -5.2 h 2.2 v -2.8 h -2.2 v -5.1 h 2.2 v -2.8 h -2.2 v -5.7 h -1 c -0.4,0 -0.8,0 -1.3,0 -0.7,0 -1.5,0 -2.5,0 -0.8,0 -1.7,-0.1 -2.8,-0.2 -0.6,-0.1 -1.3,-0.1 -2,-0.2 -1.5,-0.2 -2.8,0.1 -2.9,0.1 0,0 0,0 -0.1,0 V 55 h 24.5 z m -24.5,12 V 62.5 c 0.1,-0.1 0.3,-0.1 0.5,-0.2 0,0 1.1,-0.2 2.3,-0.1 0.7,0.1 1.4,0.1 2,0.2 1.1,0.1 2.1,0.2 3,0.2 0.9,0 1.6,0 2.3,0 0.2,0 0.4,0 0.5,0 v 17.7 c -0.5,0 -1.2,0 -1.9,0 -1.6,0 -2.7,-0.1 -3.8,-0.2 -1.1,-0.1 -2.1,-0.2 -3.5,-0.2 -0.6,0.1 -1,0.2 -1.4,0.3 z M 34.6,33.3 h 51 v 19.1 h -51 z m 0,21.7 h 24.3 v 5.3 c -0.4,-0.1 -1.5,-0.2 -2.7,-0.1 -0.7,0.1 -1.4,0.1 -2,0.2 -1.1,0.1 -2,0.2 -2.8,0.2 -1,0 -1.8,0 -2.5,0 -0.5,0 -0.9,0 -1.3,0 h -1 v 5.1 h -2.4 v 2.8 h 2.4 v 5.1 h -2.4 v 2.8 h 2.4 v 5.7 h 0.9 c 0.1,0 1.4,0.1 3,0 1.7,0 2.9,-0.1 3.9,-0.2 1.1,-0.1 2,-0.2 3.3,-0.2 0.5,0 0.7,0.2 0.9,0.5 0,0 0.1,0.1 0.1,0.1 V 96.4 C 53,93.8 34.6,83.5 34.6,67.6 Z"
       class="st0" /><path
       style="fill:#b31b1b"
       id="path6"
       d="M 55.9,35.2 H 41.6 v 1 c 0,3.1 0,8.4 0,8.6 0.1,1.1 0.8,2.1 2.2,3 1.7,1.2 4.3,2.7 4.4,2.7 l 0.5,0.3 0.5,-0.3 c 0.1,-0.1 2.9,-1.6 4.6,-2.7 2,-1.3 2.1,-2.6 2.1,-3 0,-0.2 0,-4.8 0,-8.6 z m -12.3,2 h 10.2 c 0,0.8 0,1.7 0,2.6 H 43.6 c 0,-0.9 0,-1.8 0,-2.6 z m 10.3,7.5 c 0,0.5 -0.7,1 -1.2,1.4 -1.2,0.8 -3.1,1.9 -4,2.4 C 47.9,48 46.1,47 44.9,46.1 44.1,45.6 43.6,45 43.6,44.6 c 0,-0.1 0,-1.3 0,-2.9 h 10.2 c 0.1,1.6 0.1,2.8 0.1,3 z"
       class="st0" /><path
       style="fill:#b31b1b"
       id="path8"
       d="M 80.1,34.8 H 65.6 v 1 c 0,3.9 0,8.6 0,8.9 0.1,1.1 0.8,2.1 2.2,3 1.8,1.2 4.4,2.7 4.5,2.8 l 0.5,0.3 0.5,-0.3 c 0.1,-0.1 3,-1.6 4.7,-2.8 2.1,-1.4 2.1,-2.6 2.1,-3 0,-0.2 0,-4.9 0,-8.8 z m -2,9.7 c 0,0.5 -0.7,1.1 -1.2,1.4 -1.3,0.8 -3.2,1.9 -4.1,2.4 -0.9,-0.5 -2.6,-1.6 -3.9,-2.4 -0.4,-0.3 -1.3,-0.9 -1.3,-1.5 0,-0.1 0,-0.2 0,-0.5 l 5,-3.6 5.5,3.7 c 0,0.3 0,0.5 0,0.5 z m -5.5,-6.7 -5,3.6 c 0,-1.4 0,-3.2 0,-4.7 h 10.6 c 0,1.6 0,3.3 0,4.8 z"
       class="st0" /><path
       style="fill:#b31b1b"
       id="path10"
       d="m 63.7,66.5 1,0.1 c 0.6,0.1 1.2,0.1 1.7,0.1 l 2.9,0.1 v -2 l -2.9,-0.1 c -0.4,0 -0.9,-0.1 -1.5,-0.1 l -1,-0.1 c -0.3,0 -0.5,0 -0.7,0 l 0.1,2 c 0.1,-0.1 0.3,-0.1 0.4,0 z"
       class="st0" /><path
       style="fill:#b31b1b"
       id="path12"
       d="m 66.4,70.2 c -0.4,0 -0.9,-0.1 -1.5,-0.1 -0.3,0 -0.7,-0.1 -1,-0.1 -0.3,0 -0.5,0 -0.7,0 v 2 c 0.1,0 0.3,0 0.5,0 0.4,0 0.7,0.1 1,0.1 0.6,0.1 1.1,0.1 1.6,0.1 0.6,0 1.5,0 2.2,0 h 0.8 v -2 h -0.8 c -0.6,0.1 -1.5,0 -2.1,0 z"
       class="st0" /><path
       style="fill:#b31b1b"
       id="path14"
       d="m 66.4,75.8 c -0.4,0 -0.9,-0.1 -1.5,-0.1 -0.3,0 -0.7,-0.1 -1,-0.1 -0.3,0 -0.5,0 -0.7,0 l 0.1,2 c 0.1,0 0.3,0 0.5,0 0.4,0 0.7,0.1 1,0.1 0.6,0.1 1.2,0.1 1.6,0.1 h 0.8 c 0.8,0 1.8,0 2.1,0.1 v -2 c -0.3,0 -1.3,0 -2.1,-0.1 z"
       class="st0" /><path
       style="fill:#b31b1b"
       id="path16"
       d="m 53.8,66.7 c 0.5,0 1,-0.1 1.7,-0.1 0.3,0 0.6,-0.1 1,-0.1 0.2,0 0.3,0 0.5,0 v -2 c -0.2,0 -0.4,0 -0.7,0 -0.4,0 -0.7,0.1 -1,0.1 -0.6,0.1 -1.1,0.1 -1.5,0.1 l -2.9,0.1 v 2 z"
       class="st0" /><path
       style="fill:#b31b1b"
       id="path18"
       d="m 55.3,70.1 c -0.6,0.1 -1.1,0.1 -1.5,0.1 l -2.9,0.1 v 2 l 2.9,-0.1 c 0.5,0 1,-0.1 1.7,-0.1 L 56.4,72 c 0.2,0 0.3,0 0.4,0 l 0.1,-2 c -0.2,0 -0.4,0 -0.7,0 z"
       class="st0" /><path
       style="fill:#b31b1b"
       id="path20"
       d="m 55.3,75.6 c -0.6,0.1 -1.1,0.1 -1.6,0.1 -0.9,0 -2.4,0.1 -2.8,0.1 v 2 c 0.4,0 1.9,-0.1 2.9,-0.1 0.5,0 1,-0.1 1.7,-0.1 l 1,-0.1 c 0.1,0 0.3,0 0.4,0 v -2 c -0.2,0 -0.4,0 -0.7,0 z"
       class="st0" /><path
       style="fill:#b31b1b"
       id="path22"
       d="m 9.3,60.3 c 2.5,0 4,-1.6 4.2,-4.4 0,-0.5 0,-1.2 -0.1,-1.9 v -0.2 h -2.1 l 0.2,0.4 c 0.1,0.3 0.2,1 0.2,1.6 C 11.6,57.2 10.5,58.1 9,58 7.4,57.9 6.5,56.9 6.5,55.5 6.5,55 6.6,54.5 7,54 l 0.3,-0.4 -2,-0.3 -0.1,0.2 c -0.3,0.6 -0.4,1.3 -0.5,1.9 -0.2,2.9 1.4,4.8 4.3,4.9 0.1,0 0.2,0 0.3,0 z"
       class="st0" /><path
       style="fill:#b31b1b"
       id="path24"
       d="m 9.7,50.5 c 0.6,0.2 1.1,0.2 1.6,0.2 1.9,0 3.3,-1.1 3.9,-3 0.3,-1.2 0.2,-2.2 -0.3,-3.2 -0.6,-1 -1.6,-1.7 -2.9,-2.1 -0.5,-0.2 -1.1,-0.2 -1.5,-0.2 -1.9,0 -3.3,1.1 -3.9,3 -0.8,2.5 0.4,4.5 3.1,5.3 z M 8.3,45.8 c 0.3,-1.1 1.2,-1.3 1.9,-1.3 0.3,0 0.7,0.1 1.1,0.2 0.9,0.3 1.6,0.7 1.9,1.3 0.2,0.4 0.3,0.8 0.1,1.3 -0.3,1.1 -1.2,1.3 -1.9,1.3 -0.4,0 -0.7,-0.1 -1.1,-0.2 C 9.1,48 7.9,47.1 8.3,45.8 Z"
       class="st0" /><path
       style="fill:#b31b1b"
       id="path26"
       d="m 18.3,39.3 -2.9,-1.6 0.1,-0.2 C 15.8,37 16,37 16.4,37.1 l 2.9,0.4 1.1,-2.1 -3.8,-0.4 c -0.3,0 -0.5,0 -0.7,0 0,-0.8 -0.4,-1.6 -1.2,-2 -0.4,-0.2 -0.8,-0.3 -1.2,-0.3 -1.4,0 -2.1,1.4 -2.8,2.7 l -1,1.9 7.6,4.1 z m -4.5,-2.7 -0.1,0.2 -1.4,-0.7 0.1,-0.2 c 0.3,-0.6 0.7,-1.2 1.3,-0.9 0.2,0.1 0.3,0.2 0.4,0.4 0.1,0.4 -0.1,0.9 -0.3,1.2 z"
       class="st0" /><polygon
       style="fill:#b31b1b"
       id="polygon28"
       points="16.6,26 15,27.9 21.7,33.4 23,31.7 19.1,28.5 24.7,29.8 26.2,27.9 19.6,22.4 18.2,24 22.2,27.3 "
       class="st0" /><polygon
       style="fill:#b31b1b"
       id="polygon30"
       points="29,18.4 26.8,20.2 26,19.1 28.4,17.2 27.2,15.7 23.1,19 28.5,25.7 32.7,22.4 31.5,21 29.1,22.9 28,21.6 30.2,19.8 "
       class="st0" /><polygon
       style="fill:#b31b1b"
       id="polygon32"
       points="35.2,20.7 39.8,18.1 38.9,16.5 36.2,18 32.9,12.1 31,13.2 "
       class="st0" /><polygon
       style="fill:#b31b1b"
       id="polygon34"
       points="42.1,17.1 47.1,15.3 46.4,13.6 43.6,14.6 41.3,8.3 39.2,9 "
       class="st0" /><path
       style="fill:#b31b1b"
       id="path36"
       d="m 55.8,13.9 c 0.2,0 0.3,0 0.5,0 1.2,-0.1 2.1,-0.5 2.6,-1.1 0.5,-0.6 0.7,-1.5 0.6,-2.5 L 59.1,4.9 56.9,5 57.3,9.9 c 0.1,1.7 -0.6,2 -1.2,2.1 -0.1,0 -0.1,0 -0.2,0 -0.5,0 -1.2,-0.2 -1.4,-1.9 l -0.4,-4.9 -2.2,0.2 0.4,5.4 c 0.4,2 1.5,3.1 3.5,3.1 z"
       class="st0" /><polygon
       style="fill:#b31b1b"
       id="polygon38"
       points="64.1,5 62.9,13.5 65,13.8 65.7,8.8 67.5,14.1 70,14.5 71.1,5.9 69,5.6 68.3,10.7 66.5,5.3 "
       class="st0" /><polygon
       style="fill:#b31b1b"
       id="polygon40"
       points="75.5,7.1 72.9,15.3 75,16 77.6,7.8 "
       class="st0" /><polygon
       style="fill:#b31b1b"
       id="polygon42"
       points="83.2,10 81.1,8.9 79.8,18 82,19 88.4,12.6 86.5,11.6 82.3,15.9 "
       class="st0" /><polygon
       style="fill:#b31b1b"
       id="polygon44"
       points="93.7,20.5 91.5,18.8 92.3,17.7 94.7,19.6 95.9,18.1 91.7,14.9 86.4,21.7 90.6,25 91.7,23.5 89.3,21.6 90.3,20.3 92.5,22 "
       class="st0" /><path
       style="fill:#b31b1b"
       id="path46"
       d="m 94.2,28.6 2.5,-2.2 0.1,0.2 c 0.3,0.4 0.3,0.5 0.1,1 l -1.4,2.6 1.6,1.8 1.7,-3.4 c 0.1,-0.1 0.2,-0.4 0.2,-0.7 0.7,0.3 1.6,0.2 2.3,-0.4 1.9,-1.6 0.4,-3.3 -0.7,-4.6 L 99.2,21.3 92.7,27 Z m 5.1,-4.5 0.1,0.2 c 0.3,0.4 0.6,0.8 0.6,1.1 0,0.2 -0.1,0.3 -0.3,0.4 -0.1,0.2 -0.3,0.2 -0.4,0.2 -0.4,0 -0.8,-0.4 -1,-0.7 l -0.1,-0.2 z"
       class="st0" /><path
       style="fill:#b31b1b"
       id="path48"
       d="m 102.2,35.5 c -0.4,0.3 -1,-0.2 -1.2,-0.6 -0.3,-0.5 -0.4,-1 -0.4,-1.7 v -0.5 l -2,0.9 0.1,0.4 c 0.2,0.7 0.3,1.1 0.7,1.8 0.7,1.2 1.6,1.8 2.6,1.8 0.5,0 0.9,-0.1 1.4,-0.4 1.5,-0.9 1.3,-2.3 1.1,-3.4 -0.1,-0.7 -0.2,-1.2 0.1,-1.4 0.2,-0.1 0.3,-0.1 0.4,-0.1 0.4,0 0.7,0.4 0.8,0.5 0.3,0.4 0.4,0.9 0.5,1.4 l 0.1,0.4 1.8,-0.8 v -0.2 c -0.1,-0.6 -0.4,-1.2 -0.8,-1.9 -0.9,-1.6 -2.5,-2.1 -3.9,-1.2 -1.5,0.9 -1.3,2.3 -1.1,3.3 0.1,1 0.2,1.5 -0.2,1.7 z"
       class="st0" /><rect
       style="fill:#b31b1b"
       id="rect50"
       height="2.2"
       width="8.6000004"
       class="st0"
       transform="matrix(0.9259,-0.3777,0.3777,0.9259,-7.4559,43.3568)"
       y="39.599998"
       x="102.5" /><polygon
       style="fill:#b31b1b"
       id="polygon52"
       points="104.7,47.8 105.2,49.9 111.8,48.3 112.3,50.5 114.1,50.1 112.5,43.5 110.7,44 111.2,46.2 "
       class="st0" /><polygon
       style="fill:#b31b1b"
       id="polygon54"
       points="109.6,56.5 106.2,56.6 106.3,58.8 109.7,58.6 115.1,61.4 115,59 111.8,57.5 114.8,55.6 114.6,53 "
       class="st0" /><polygon
       style="fill:#b31b1b"
       id="polygon56"
       points="6.3,72.7 6.9,74.8 10.3,73.8 11,76.4 12.8,75.9 12.1,73.3 13.4,72.9 14.2,75.7 16,75.1 14.6,70.3 "
       class="st0" /><path
       style="fill:#b31b1b"
       id="path58"
       d="m 18.7,83.6 c 0.3,-1 0.2,-2.1 -0.3,-3.2 -0.8,-1.6 -2,-2.4 -3.6,-2.4 -0.7,0 -1.5,0.2 -2.3,0.6 -1.3,0.6 -2.1,1.5 -2.5,2.6 -0.3,1 -0.2,2.1 0.3,3.2 0.8,1.5 2,2.4 3.6,2.4 0.7,0 1.5,-0.2 2.3,-0.6 1.3,-0.7 2.2,-1.5 2.5,-2.6 z m -3.4,0.5 c -0.5,0.3 -1.1,0.4 -1.6,0.4 -0.8,0 -1.3,-0.3 -1.6,-1 -0.2,-0.5 -0.3,-0.9 -0.1,-1.3 0.2,-0.6 0.8,-1.2 1.6,-1.6 0.5,-0.2 1,-0.4 1.5,-0.4 0.8,0 1.3,0.3 1.6,1 0.2,0.5 0.3,0.9 0.1,1.3 -0.2,0.6 -0.7,1.2 -1.5,1.6 z"
       class="st0" /><path
       style="fill:#b31b1b"
       id="path60"
       d="m 24.7,90.3 -3.9,3.1 c -1,0.8 -1.8,0.9 -2.4,0.2 -0.2,-0.3 -0.3,-0.6 -0.3,-0.9 0.1,-0.4 0.4,-0.9 1,-1.4 l 3.9,-3.1 -1.4,-1.7 -4.3,3.4 c -0.9,0.7 -1.4,1.5 -1.4,2.4 0,0.8 0.3,1.6 1,2.5 0.8,1.1 1.7,1.6 2.7,1.6 0.7,0 1.4,-0.3 2.1,-0.9 L 26,92 Z"
       class="st0" /><polygon
       style="fill:#b31b1b"
       id="polygon62"
       points="26.3,103.8 28.2,105.4 33.7,98.7 32,97.3 28.8,101.3 30,95.7 28.1,94.1 22.6,100.8 24.3,102.2 27.5,98.2 "
       class="st0" /><path
       style="fill:#b31b1b"
       id="path64"
       d="m 38.4,101.4 -2.2,-1.1 -3.9,7.7 2.2,1.1 c 1.1,0.5 2,0.8 2.9,0.8 1.5,0 2.7,-0.8 3.5,-2.4 1.3,-2.6 0.4,-4.6 -2.5,-6.1 z m 0.4,5.1 c -0.4,0.9 -1.2,1.4 -2.1,1.4 -0.4,0 -0.7,-0.1 -1.1,-0.3 l -0.5,-0.3 2.2,-4.4 0.5,0.3 c 0.6,0.3 1,0.8 1.2,1.3 0.2,0.7 0.1,1.3 -0.2,2 z"
       class="st0" /><polygon
       style="fill:#b31b1b"
       id="polygon66"
       points="49,110.7 49.5,108.9 46.7,108.2 47,106.8 50.1,107.6 50.5,105.8 45.4,104.5 43.2,112.8 48.3,114.2 48.8,112.4 45.8,111.6 46.2,110 "
       class="st0" /><path
       style="fill:#b31b1b"
       id="path68"
       d="m 55.9,106.5 -2.5,-0.1 -0.5,8.6 2.5,0.1 c 0.2,0 0.4,0 0.6,0 2.9,0 4.4,-1.4 4.6,-4.1 0.1,-1.3 -0.2,-2.4 -0.9,-3.2 -0.8,-0.7 -2,-1.2 -3.8,-1.3 z m -0.1,6.8 h -0.6 l 0.3,-4.9 h 0.6 c 1.2,0.1 2.3,1 2.2,2.6 -0.1,1.6 -1.3,2.3 -2.5,2.3 z"
       class="st0" /><path
       style="fill:#b31b1b"
       id="path70"
       d="m 68.2,105.8 -1.5,9.1 2.3,-0.5 0.3,-1.9 2.8,-0.6 1.1,1.7 2.4,-0.5 -5.1,-7.7 z m 1.4,4.8 0.3,-2.3 1.2,1.9 z"
       class="st0" /><polygon
       style="fill:#b31b1b"
       id="polygon72"
       points="77.2,112.4 79.2,111.6 78.5,109.6 76.4,110.3 "
       class="st0" /><path
       style="fill:#b31b1b"
       id="path74"
       d="m 80.6,101.6 -2.2,1.2 4.1,7.6 2.2,-1.2 c 2.9,-1.6 3.6,-3.6 2.3,-6.1 -1.3,-2.6 -3.5,-3.1 -6.4,-1.5 z m 3.5,5.8 -0.5,0.3 -2.3,-4.3 0.5,-0.3 c 0.3,-0.2 0.7,-0.3 1.1,-0.3 0.9,0 1.6,0.5 2.1,1.3 0.8,1.4 0.1,2.7 -0.9,3.3 z"
       class="st0" /><polygon
       style="fill:#b31b1b"
       id="polygon76"
       points="89.9,106.1 91.7,104.8 90.5,103 88.7,104.3 "
       class="st0" /><polygon
       style="fill:#b31b1b"
       id="polygon78"
       points="93.8,95.5 97.9,99.6 99.5,98.1 93.4,91.9 92.1,93.2 91.7,96.6 93.6,96.9 "
       class="st0" /><path
       style="fill:#b31b1b"
       id="path80"
       d="m 103.8,88.7 c -0.7,-0.5 -1.5,-0.6 -2.4,-0.3 0,-0.8 -0.4,-1.6 -1,-2 -1.1,-0.8 -2.5,-0.3 -3.6,1.1 -1,1.4 -0.9,2.8 0.3,3.7 0.6,0.4 1.4,0.5 2.1,0.3 -0.1,0.9 0.2,1.6 0.9,2.1 0.5,0.4 1,0.5 1.5,0.5 0.9,0 1.7,-0.5 2.5,-1.5 0.6,-0.8 0.9,-1.6 0.8,-2.4 -0.1,-0.5 -0.5,-1 -1.1,-1.5 z m -4.1,0.6 c -0.3,0.2 -0.6,0.4 -0.9,0.4 -0.1,0 -0.3,0 -0.4,-0.1 -0.4,-0.3 -0.2,-0.8 0,-1.1 0.1,-0.2 0.3,-0.3 0.5,-0.3 0.1,0 0.3,0.1 0.5,0.2 0.3,0.2 0.4,0.6 0.3,0.9 z m 3,2.4 c -0.3,0.4 -0.8,0.5 -1.2,0.2 -0.3,-0.3 -0.5,-0.6 -0.4,-1.2 0.6,-0.4 1.1,-0.5 1.5,-0.2 0.2,0.1 0.3,0.3 0.3,0.5 0,0.2 -0.1,0.5 -0.2,0.7 z"
       class="st0" /><path
       style="fill:#b31b1b"
       id="path82"
       d="m 107.7,80.3 c -1.5,-0.7 -2.9,-0.3 -3.6,1.1 -0.2,0.4 -0.3,0.8 -0.2,1.2 -0.5,-0.4 -1,-1.1 -0.6,-2 0.2,-0.4 0.5,-0.7 0.8,-1 l 0.3,-0.2 -1.6,-1.1 -0.2,0.2 c -0.4,0.4 -0.8,0.9 -1.1,1.5 -0.4,0.9 -0.5,1.7 -0.2,2.5 0.5,1.4 1.9,2.4 3,2.9 1,0.5 1.8,0.7 2.5,0.7 1.1,0 1.9,-0.5 2.5,-1.6 0.8,-1.8 0.2,-3.3 -1.6,-4.2 z m 0,3.2 c -0.1,0.3 -0.4,0.4 -0.7,0.4 -0.2,0 -0.5,-0.1 -0.7,-0.2 -0.4,-0.2 -0.7,-0.5 -0.8,-0.7 -0.1,-0.2 0,-0.3 0,-0.5 0.1,-0.3 0.3,-0.4 0.7,-0.4 0.2,0 0.5,0.1 0.8,0.2 0.4,0.2 0.6,0.4 0.7,0.7 0.1,0.2 0,0.4 0,0.5 z"
       class="st0" /><path
       style="fill:#b31b1b"
       id="path84"
       d="m 110.8,71.5 c -1.7,-0.5 -3.1,0.3 -3.6,1.9 0,0.2 -0.1,0.3 -0.1,0.4 l -1,-0.3 0.9,-3 -1.7,-0.5 -1.5,5 4.8,1.5 v -0.4 c 0,-0.5 0.1,-0.9 0.2,-1.4 0.1,-0.4 0.6,-1.4 1.5,-1.2 1,0.3 0.8,1.4 0.7,1.7 -0.2,0.6 -0.5,1 -0.8,1.4 l -0.3,0.3 2,0.7 0.1,-0.2 c 0.3,-0.6 0.6,-1.3 0.8,-1.8 0.3,-1 0.3,-1.9 -0.1,-2.7 -0.4,-0.6 -1.1,-1.1 -1.9,-1.4 z"
       class="st0" /><path
       style="fill:#b31b1b"
       id="path86"
       d="m 16.3,60 c 0,24 19.5,43.6 43.5,43.6 24,0 43.5,-19.5 43.5,-43.6 C 103.3,36 83.8,16.5 59.8,16.5 35.9,16.4 16.3,36 16.3,60 Z M 59.9,17.9 c 23.2,0 42,18.9 42,42 0,23.2 -18.9,42 -42,42 -23.2,0 -42,-18.9 -42,-42 -0.1,-23.1 18.8,-42 42,-42 z"
       class="st0" /><path
       style="fill:#b31b1b"
       id="path88"
       d="M 59.9,0.4 C 27,0.4 0.3,27.1 0.3,60 0.3,92.8 27,119.6 59.9,119.6 92.7,119.6 119.5,92.9 119.5,60 119.4,27.1 92.7,0.4 59.9,0.4 Z m 0,117.6 c -32,0 -58,-26 -58,-58 0,-32 26,-58 58,-58 32,0 58,26 58,58 0,32 -26,58 -58,58 z"
       class="st0" /></g></svg>