<?xml version="1.0" encoding="UTF-8" standalone="no"?>
<svg
   xmlns:dc="http://purl.org/dc/elements/1.1/"
   xmlns:cc="http://creativecommons.org/ns#"
   xmlns:rdf="http://www.w3.org/1999/02/22-rdf-syntax-ns#"
   xmlns:svg="http://www.w3.org/2000/svg"
   xmlns="http://www.w3.org/2000/svg"
   viewBox="0 0 940.00001 567"
   height="567"
   width="940"
   xml:space="preserve"
   id="svg2"
   version="1.1"><metadata
     id="metadata8"><rdf:RDF><cc:Work
         rdf:about=""><dc:format>image/svg+xml</dc:format><dc:type
           rdf:resource="http://purl.org/dc/dcmitype/StillImage" /><dc:title></dc:title></cc:Work></rdf:RDF></metadata><defs
     id="defs6"><clipPath
       id="clipPath674"
       clipPathUnits="userSpaceOnUse"><path
         id="path672"
         d="M 0,642.947 H 1006.667 V 0 H 0 Z" /></clipPath></defs><g
     transform="matrix(1.3333333,0,0,-1.3333333,0,566.99997)"
     id="g10"><g
       transform="translate(-973.08019,-353.27199)"
       id="g5342"><g
         id="g662"
         transform="matrix(7.3047758,0,0,7.3047758,1100.5802,637.95493)"><path
           d="m 0,0 v -19.729 h 13.67 v 4.545 H 5.404 v 2.984 h 2.735 v 4.654 H 5.404 v 3.001 H 13.67 V 0 Z"
           style="fill:#c72025;fill-opacity:1;fill-rule:nonzero;stroke:none"
           id="path664" /></g><path
         d="m 1200.4303,582.83162 h -18.8606 v -33.98911 h 18.8606 z"
         style="fill:#c72025;fill-opacity:1;fill-rule:nonzero;stroke:none;stroke-width:7.30477571"
         id="path666" /><g
         id="g668"
         transform="matrix(7.3047758,0,0,7.3047758,-5217.494,-2954.338)"><g
           id="g670"
           clip-path="url(#clipPath674)"><g
             id="g676"
             transform="translate(902.9727,483.8567)"><path
               d="m 0,0 c -0.271,-0.025 -0.493,0.034 -0.644,0.171 -0.147,0.135 -0.222,0.341 -0.222,0.613 l 0.003,6.045 -1.129,0.004 0.013,-6.157 c 0,-1.088 0.624,-1.712 1.712,-1.712 0.168,0 0.315,0.042 0.321,0.044 l 0.102,0.03 v 0.976 z"
               style="fill:#474a56;fill-opacity:1;fill-rule:nonzero;stroke:none"
               id="path678" /></g><g
             id="g680"
             transform="translate(922.5293,488.8435)"><path
               d="M 0,0 C -0.81,0 -1.447,-0.321 -1.942,-0.979 -2.329,-0.346 -2.96,0 -3.742,0 -4.55,0 -5.05,-0.362 -5.396,-0.768 v 0.65 H -6.51 v -5.846 h 1.114 v 3.315 c 0,0.934 0.591,1.611 1.406,1.611 0.806,0 1.288,-0.566 1.288,-1.514 v -3.412 h 1.113 v 3.348 c 0,0.944 0.557,1.578 1.385,1.578 0.838,0 1.299,-0.545 1.299,-1.535 V -5.964 H 2.208 V -2.38 C 2.208,-0.912 1.362,0 0,0"
               style="fill:#474a56;fill-opacity:1;fill-rule:nonzero;stroke:none"
               id="path682" /></g><g
             id="g684"
             transform="translate(885.4893,486.2888)"><path
               d="M 0,0 H 4.108 V 1.06 H 0 v 2.285 h 4.593 v 1.06 H -1.135 V -3.41 h 5.781 v 1.06 H 0 Z"
               style="fill:#474a56;fill-opacity:1;fill-rule:nonzero;stroke:none"
               id="path686" /></g><g
             id="g688"
             transform="translate(900.0488,488.822)"><path
               d="m 0,0 c -0.862,0.034 -1.628,-0.381 -2.133,-1.135 v 1.038 h -1.113 v -5.846 h 1.113 v 2.359 c 0,1.461 0.81,2.406 2.063,2.406 h 0.207 v 1.172 z"
               style="fill:#474a56;fill-opacity:1;fill-rule:nonzero;stroke:none"
               id="path690" /></g><g
             id="g692"
             transform="translate(906.7227,488.8435)"><path
               d="m 0,0 c -0.725,0 -1.315,-0.264 -1.762,-0.787 l -0.002,2.632 h -1.125 l 0.015,-7.809 h 1.113 v 3.326 c 0,0.942 0.627,1.6 1.525,1.6 0.886,0 1.394,-0.56 1.394,-1.535 v -3.391 h 1.114 v 3.595 C 2.272,-0.93 1.38,0 0,0"
               style="fill:#474a56;fill-opacity:1;fill-rule:nonzero;stroke:none"
               id="path694" /></g><g
             id="g696"
             transform="translate(913.8662,485.0656)"><path
               d="m 0,0 c 0,-0.777 -0.739,-1.363 -1.719,-1.363 -0.604,0 -1.255,0.302 -1.255,0.965 v 0.022 c 0,0.631 0.554,1.008 1.482,1.008 0.501,0 0.99,-0.067 1.492,-0.202 z m 0.458,3.08 c -0.435,0.435 -1.072,0.655 -1.896,0.655 -0.917,0 -1.567,-0.24 -2.083,-0.476 L -3.64,3.205 -3.295,2.258 -3.154,2.322 c 0.448,0.206 0.956,0.396 1.629,0.396 0.691,0 1.513,-0.238 1.513,-1.374 V 1.337 c -0.394,0.102 -0.887,0.193 -1.567,0.193 -1.554,0 -2.52,-0.743 -2.52,-1.939 V -0.43 c 0,-1.231 1.117,-1.875 2.219,-1.875 0.887,0 1.484,0.349 1.868,0.725 V -2.187 H 1.07 v 3.542 c 0,0.739 -0.206,1.319 -0.612,1.725"
               style="fill:#474a56;fill-opacity:1;fill-rule:nonzero;stroke:none"
               id="path698" /></g><g
             id="g700"
             transform="translate(894.8301,485.0656)"><path
               d="m 0,0 c 0,-0.777 -0.738,-1.363 -1.718,-1.363 -0.604,0 -1.256,0.302 -1.256,0.965 v 0.022 c 0,0.631 0.554,1.008 1.482,1.008 0.502,0 0.991,-0.067 1.492,-0.202 z m 0.459,3.08 c -0.435,0.435 -1.073,0.655 -1.897,0.655 -0.916,0 -1.567,-0.24 -2.082,-0.476 l -0.12,-0.054 0.346,-0.947 0.141,0.064 c 0.448,0.206 0.956,0.396 1.629,0.396 0.69,0 1.513,-0.238 1.513,-1.374 V 1.337 c -0.394,0.102 -0.888,0.193 -1.567,0.193 -1.555,0 -2.52,-0.743 -2.52,-1.939 V -0.43 c 0,-1.231 1.117,-1.875 2.218,-1.875 0.888,0 1.484,0.349 1.869,0.725 V -2.187 H 1.07 v 3.542 c 0,0.739 -0.206,1.319 -0.611,1.725"
               style="fill:#474a56;fill-opacity:1;fill-rule:nonzero;stroke:none"
               id="path702" /></g><g
             id="g704"
             transform="translate(902.9727,483.8567)"><path
               d="m 0,0 c -0.271,-0.025 -0.493,0.034 -0.644,0.171 -0.147,0.135 -0.222,0.341 -0.222,0.613 l 0.003,6.045 -1.129,0.004 0.013,-6.157 c 0,-1.088 0.624,-1.712 1.712,-1.712 0.168,0 0.315,0.042 0.321,0.044 l 0.102,0.03 v 0.976 z"
               style="fill:#474a56;fill-opacity:1;fill-rule:nonzero;stroke:none"
               id="path706" /></g><g
             id="g708"
             transform="translate(922.5293,488.8435)"><path
               d="M 0,0 C -0.81,0 -1.447,-0.321 -1.942,-0.979 -2.329,-0.346 -2.96,0 -3.742,0 -4.55,0 -5.05,-0.362 -5.396,-0.768 v 0.65 H -6.51 v -5.846 h 1.114 v 3.315 c 0,0.934 0.591,1.611 1.406,1.611 0.806,0 1.288,-0.566 1.288,-1.514 v -3.412 h 1.113 v 3.348 c 0,0.944 0.557,1.578 1.385,1.578 0.838,0 1.299,-0.545 1.299,-1.535 V -5.964 H 2.208 V -2.38 C 2.208,-0.912 1.362,0 0,0"
               style="fill:#474a56;fill-opacity:1;fill-rule:nonzero;stroke:none"
               id="path710" /></g><g
             id="g712"
             transform="translate(885.4893,486.2888)"><path
               d="M 0,0 H 4.108 V 1.06 H 0 v 2.285 h 4.593 v 1.06 H -1.135 V -3.41 h 5.781 v 1.06 H 0 Z"
               style="fill:#474a56;fill-opacity:1;fill-rule:nonzero;stroke:none"
               id="path714" /></g><g
             id="g716"
             transform="translate(900.0488,488.822)"><path
               d="m 0,0 c -0.862,0.034 -1.628,-0.381 -2.133,-1.135 v 1.038 h -1.113 v -5.846 h 1.113 v 2.359 c 0,1.461 0.81,2.406 2.063,2.406 h 0.207 v 1.172 z"
               style="fill:#474a56;fill-opacity:1;fill-rule:nonzero;stroke:none"
               id="path718" /></g><g
             id="g720"
             transform="translate(906.7227,488.8435)"><path
               d="m 0,0 c -0.725,0 -1.315,-0.264 -1.762,-0.787 l -0.002,2.632 h -1.125 l 0.015,-7.809 h 1.113 v 3.326 c 0,0.942 0.627,1.6 1.525,1.6 0.886,0 1.394,-0.56 1.394,-1.535 v -3.391 h 1.114 v 3.595 C 2.272,-0.93 1.38,0 0,0"
               style="fill:#474a56;fill-opacity:1;fill-rule:nonzero;stroke:none"
               id="path722" /></g><g
             id="g724"
             transform="translate(913.8662,485.0656)"><path
               d="m 0,0 c 0,-0.777 -0.739,-1.363 -1.719,-1.363 -0.604,0 -1.255,0.302 -1.255,0.965 v 0.022 c 0,0.631 0.554,1.008 1.482,1.008 0.501,0 0.99,-0.067 1.492,-0.202 z m 0.458,3.08 c -0.435,0.435 -1.072,0.655 -1.896,0.655 -0.917,0 -1.567,-0.24 -2.083,-0.476 L -3.64,3.205 -3.295,2.258 -3.154,2.322 c 0.448,0.206 0.956,0.396 1.629,0.396 0.691,0 1.513,-0.238 1.513,-1.374 V 1.337 c -0.394,0.102 -0.887,0.193 -1.567,0.193 -1.554,0 -2.52,-0.743 -2.52,-1.939 V -0.43 c 0,-1.231 1.117,-1.875 2.219,-1.875 0.887,0 1.484,0.349 1.868,0.725 V -2.187 H 1.07 v 3.542 c 0,0.739 -0.206,1.319 -0.612,1.725"
               style="fill:#474a56;fill-opacity:1;fill-rule:nonzero;stroke:none"
               id="path726" /></g><g
             id="g728"
             transform="translate(894.8301,485.0656)"><path
               d="m 0,0 c 0,-0.777 -0.738,-1.363 -1.718,-1.363 -0.604,0 -1.256,0.302 -1.256,0.965 v 0.022 c 0,0.631 0.554,1.008 1.482,1.008 0.502,0 0.991,-0.067 1.492,-0.202 z m 0.459,3.08 c -0.435,0.435 -1.073,0.655 -1.897,0.655 -0.916,0 -1.567,-0.24 -2.082,-0.476 l -0.12,-0.054 0.346,-0.947 0.141,0.064 c 0.448,0.206 0.956,0.396 1.629,0.396 0.69,0 1.513,-0.238 1.513,-1.374 V 1.337 c -0.394,0.102 -0.888,0.193 -1.567,0.193 -1.555,0 -2.52,-0.743 -2.52,-1.939 V -0.43 c 0,-1.231 1.117,-1.875 2.218,-1.875 0.888,0 1.484,0.349 1.869,0.725 V -2.187 H 1.07 v 3.542 c 0,0.739 -0.206,1.319 -0.611,1.725"
               style="fill:#474a56;fill-opacity:1;fill-rule:nonzero;stroke:none"
               id="path730" /></g><g
             id="g732"
             transform="translate(903.5791,477.9997)"><path
               d="M 0,0 V 1.03 H -1.786 V 2.729 H -2.914 V 1.03 H -3.698 V 0 h 0.784 v -3.254 c 0,-1.102 0.632,-1.735 1.735,-1.735 0.4,0 0.742,0.081 1.079,0.256 l 0.079,0.04 v 1.037 l -0.208,-0.1 c -0.268,-0.129 -0.487,-0.182 -0.754,-0.182 -0.556,0 -0.803,0.245 -0.803,0.793 V 0 Z"
               style="fill:#474a56;fill-opacity:1;fill-rule:nonzero;stroke:none"
               id="path734" /></g><g
             id="g736"
             transform="translate(897.416,476.6047)"><path
               d="M 0,0 -0.021,0.007 C -0.702,0.214 -1.347,0.41 -1.347,0.832 v 0.022 c 0,0.401 0.38,0.672 0.946,0.672 0.496,0 1.075,-0.19 1.588,-0.522 L 1.312,0.923 1.842,1.802 1.727,1.878 C 1.115,2.282 0.328,2.523 -0.38,2.523 -1.594,2.523 -2.441,1.8 -2.441,0.766 V 0.745 c 0,-1.171 1.137,-1.495 1.968,-1.73 0.737,-0.206 1.3,-0.399 1.3,-0.852 v -0.022 c 0,-0.448 -0.411,-0.749 -1.021,-0.749 -0.618,0 -1.262,0.239 -1.864,0.69 l -0.119,0.089 -0.589,-0.831 0.106,-0.085 c 0.654,-0.53 1.583,-0.86 2.422,-0.86 1.286,0 2.149,0.737 2.149,1.833 V -1.75 C 1.911,-0.573 0.761,-0.228 0,0"
               style="fill:#474a56;fill-opacity:1;fill-rule:nonzero;stroke:none"
               id="path738" /></g><g
             id="g740"
             transform="translate(891.7354,479.1496)"><path
               d="m 0,0 c -0.734,0 -1.332,-0.268 -1.783,-0.797 v 0.677 h -1.128 v -5.921 h 1.128 v 3.369 c 0,0.954 0.635,1.62 1.543,1.62 0.898,0 1.414,-0.567 1.414,-1.554 V -6.041 H 2.301 V -2.4 C 2.301,-0.942 1.397,0 0,0"
               style="fill:#474a56;fill-opacity:1;fill-rule:nonzero;stroke:none"
               id="path742" /></g><g
             id="g744"
             transform="translate(915.0596,479.0295)"><path
               d="m 0,0 v -3.369 c 0,-0.954 -0.635,-1.62 -1.544,-1.62 -0.897,0 -1.413,0.567 -1.413,1.555 V 0 h -1.128 v -3.641 c 0,-1.458 0.903,-2.4 2.302,-2.4 0.737,0 1.324,0.264 1.783,0.802 V -5.921 H 1.117 V 0 Z"
               style="fill:#474a56;fill-opacity:1;fill-rule:nonzero;stroke:none"
               id="path746" /></g><g
             id="g748"
             transform="translate(920.5488,477.9997)"><path
               d="M 0,0 V 1.03 H -1.787 V 2.729 H -2.915 V 1.03 H -3.699 V 0 h 0.784 v -3.254 c 0,-1.102 0.633,-1.735 1.735,-1.735 0.401,0 0.743,0.081 1.079,0.256 l 0.079,0.04 v 1.037 l -0.207,-0.1 c -0.268,-0.129 -0.487,-0.182 -0.754,-0.182 -0.556,0 -0.804,0.245 -0.804,0.793 V 0 Z"
               style="fill:#474a56;fill-opacity:1;fill-rule:nonzero;stroke:none"
               id="path750" /></g><g
             id="g752"
             transform="translate(910.3369,477.9997)"><path
               d="M 0,0 V 1.03 H -1.787 V 2.729 H -2.915 V 1.03 H -3.699 V 0 h 0.784 v -3.254 c 0,-1.102 0.633,-1.735 1.735,-1.735 0.4,0 0.743,0.081 1.079,0.256 l 0.079,0.04 v 1.037 l -0.207,-0.1 c -0.269,-0.129 -0.487,-0.182 -0.754,-0.182 -0.556,0 -0.804,0.245 -0.804,0.793 V 0 Z"
               style="fill:#474a56;fill-opacity:1;fill-rule:nonzero;stroke:none"
               id="path754" /></g><path
             d="m 904.58,479.513 h 1.141 v 1.215 h -1.141 z"
             style="fill:#474a56;fill-opacity:1;fill-rule:nonzero;stroke:none"
             id="path756" /><path
             d="m 904.586,473.109 h 1.128 v 5.921 h -1.128 z"
             style="fill:#474a56;fill-opacity:1;fill-rule:nonzero;stroke:none"
             id="path758" /><g
             id="g760"
             transform="translate(921.9453,476.5241)"><path
               d="M 0,0 C 0.155,0.966 0.822,1.628 1.666,1.628 2.715,1.628 3.297,0.812 3.425,0 Z m 1.687,2.625 c -1.595,0 -2.845,-1.35 -2.845,-3.075 v -0.021 c 0,-1.753 1.27,-3.075 2.955,-3.075 1.021,0 1.904,0.382 2.552,1.105 L 4.445,-2.333 3.71,-1.676 3.613,-1.777 C 3.152,-2.261 2.515,-2.527 1.818,-2.527 0.873,-2.527 0.159,-1.884 0,-0.91 h 4.556 l 0.014,0.129 c 0.012,0.106 0.012,0.178 0.012,0.288 0,1.807 -1.218,3.118 -2.895,3.118"
               style="fill:#474a56;fill-opacity:1;fill-rule:nonzero;stroke:none"
               id="path762" /></g><g
             id="g764"
             transform="translate(903.5791,477.9997)"><path
               d="M 0,0 V 1.03 H -1.786 V 2.729 H -2.914 V 1.03 H -3.698 V 0 h 0.784 v -3.254 c 0,-1.102 0.632,-1.735 1.735,-1.735 0.4,0 0.742,0.081 1.079,0.256 l 0.079,0.04 v 1.037 l -0.208,-0.1 c -0.268,-0.129 -0.487,-0.182 -0.754,-0.182 -0.556,0 -0.803,0.245 -0.803,0.793 V 0 Z"
               style="fill:#474a56;fill-opacity:1;fill-rule:nonzero;stroke:none"
               id="path766" /></g><g
             id="g768"
             transform="translate(897.416,476.6047)"><path
               d="M 0,0 -0.021,0.007 C -0.702,0.214 -1.347,0.41 -1.347,0.832 v 0.022 c 0,0.401 0.38,0.672 0.946,0.672 0.496,0 1.075,-0.19 1.588,-0.522 L 1.312,0.923 1.842,1.802 1.727,1.878 C 1.115,2.282 0.328,2.523 -0.38,2.523 -1.594,2.523 -2.441,1.8 -2.441,0.766 V 0.745 c 0,-1.171 1.137,-1.495 1.968,-1.73 0.737,-0.206 1.3,-0.399 1.3,-0.852 v -0.022 c 0,-0.448 -0.411,-0.749 -1.021,-0.749 -0.618,0 -1.262,0.239 -1.864,0.69 l -0.119,0.089 -0.589,-0.831 0.106,-0.085 c 0.654,-0.53 1.583,-0.86 2.422,-0.86 1.286,0 2.149,0.737 2.149,1.833 V -1.75 C 1.911,-0.573 0.761,-0.228 0,0"
               style="fill:#474a56;fill-opacity:1;fill-rule:nonzero;stroke:none"
               id="path770" /></g><g
             id="g772"
             transform="translate(891.7354,479.1496)"><path
               d="m 0,0 c -0.734,0 -1.332,-0.268 -1.783,-0.797 v 0.677 h -1.128 v -5.921 h 1.128 v 3.369 c 0,0.954 0.635,1.62 1.543,1.62 0.898,0 1.414,-0.567 1.414,-1.554 V -6.041 H 2.301 V -2.4 C 2.301,-0.942 1.397,0 0,0"
               style="fill:#474a56;fill-opacity:1;fill-rule:nonzero;stroke:none"
               id="path774" /></g><g
             id="g776"
             transform="translate(915.0596,479.0295)"><path
               d="m 0,0 v -3.369 c 0,-0.954 -0.635,-1.62 -1.544,-1.62 -0.897,0 -1.413,0.567 -1.413,1.555 V 0 h -1.128 v -3.641 c 0,-1.458 0.903,-2.4 2.302,-2.4 0.737,0 1.324,0.264 1.783,0.802 V -5.921 H 1.117 V 0 Z"
               style="fill:#474a56;fill-opacity:1;fill-rule:nonzero;stroke:none"
               id="path778" /></g><g
             id="g780"
             transform="translate(920.5488,477.9997)"><path
               d="M 0,0 V 1.03 H -1.787 V 2.729 H -2.915 V 1.03 H -3.699 V 0 h 0.784 v -3.254 c 0,-1.102 0.633,-1.735 1.735,-1.735 0.401,0 0.743,0.081 1.079,0.256 l 0.079,0.04 v 1.037 l -0.207,-0.1 c -0.268,-0.129 -0.487,-0.182 -0.754,-0.182 -0.556,0 -0.804,0.245 -0.804,0.793 V 0 Z"
               style="fill:#474a56;fill-opacity:1;fill-rule:nonzero;stroke:none"
               id="path782" /></g><g
             id="g784"
             transform="translate(910.3369,477.9997)"><path
               d="M 0,0 V 1.03 H -1.787 V 2.729 H -2.915 V 1.03 H -3.699 V 0 h 0.784 v -3.254 c 0,-1.102 0.633,-1.735 1.735,-1.735 0.4,0 0.743,0.081 1.079,0.256 l 0.079,0.04 v 1.037 l -0.207,-0.1 c -0.269,-0.129 -0.487,-0.182 -0.754,-0.182 -0.556,0 -0.804,0.245 -0.804,0.793 V 0 Z"
               style="fill:#474a56;fill-opacity:1;fill-rule:nonzero;stroke:none"
               id="path786" /></g><path
             d="m 904.58,479.513 h 1.141 v 1.215 h -1.141 z"
             style="fill:#474a56;fill-opacity:1;fill-rule:nonzero;stroke:none"
             id="path788" /><path
             d="m 904.586,473.109 h 1.128 v 5.921 h -1.128 z"
             style="fill:#474a56;fill-opacity:1;fill-rule:nonzero;stroke:none"
             id="path790" /><g
             id="g792"
             transform="translate(921.9453,476.5241)"><path
               d="M 0,0 C 0.155,0.966 0.822,1.628 1.666,1.628 2.715,1.628 3.297,0.812 3.425,0 Z m 1.687,2.625 c -1.595,0 -2.845,-1.35 -2.845,-3.075 v -0.021 c 0,-1.753 1.27,-3.075 2.955,-3.075 1.021,0 1.904,0.382 2.552,1.105 L 4.445,-2.333 3.71,-1.676 3.613,-1.777 C 3.152,-2.261 2.515,-2.527 1.818,-2.527 0.873,-2.527 0.159,-1.884 0,-0.91 h 4.556 l 0.014,0.129 c 0.012,0.106 0.012,0.178 0.012,0.288 0,1.807 -1.218,3.118 -2.895,3.118"
               style="fill:#474a56;fill-opacity:1;fill-rule:nonzero;stroke:none"
               id="path794" /></g><g
             id="g796"
             transform="translate(887.9258,480.0046)"><path
               d="m 0,0 v 1.003 l -3.571,0.002 v -1.006 l 1.224,-0.002 v -5.88 H -3.571 V -6.891 H 0 v 1.008 h -1.222 l -0.003,5.89 z"
               style="fill:#474a56;fill-opacity:1;fill-rule:nonzero;stroke:none"
               id="path798" /></g></g></g></g></g></svg>