<?xml version="1.0" encoding="UTF-8" standalone="no"?>
<svg 
  xmlns:dc="http://purl.org/dc/elements/1.1/" 
  xmlns:cc="http://creativecommons.org/ns#" 
  xmlns:rdf="http://www.w3.org/1999/02/22-rdf-syntax-ns#" 
  xmlns:svg="http://www.w3.org/2000/svg" 
  xmlns="http://www.w3.org/2000/svg" 
  version="1.1" 
  id="svg2" 
  height="50mm" 
  width="50mm" 
  viewBox="-1 -1 62 62">
  <defs id="defs4"/>
  <metadata
     id="metadata7">
    <rdf:RDF>
      <cc:Work rdf:about="">
        <dc:format>image/svg+xml</dc:format>
        <dc:type rdf:resource="http://purl.org/dc/dcmitype/StillImage" />
        <dc:title>BrAPI Logo Clover</dc:title>
        <cc:license>
          <cc:legalcode>https://creativecommons.org/licenses/by-sa/4.0/</cc:legalcode>
        </cc:license>
      </cc:Work>
    </rdf:RDF>
  </metadata>
  <g transform="translate(-32.413226,-970.03043)" id="layer1">
    <g id="g5877" transform="translate(-1013.6423,2220.4193)">
      <g id="g5672">
        <g transform="matrix(0.47999332,0,0,0.47999332,543.95587,-617.21019)" id="g4216">
          <g id="g4704" transform="translate(1197.0164,-1911.6151)">
            <path style="color:#000000;clip-rule:nonzero;display:inline;overflow:visible;visibility:visible;opacity:1;isolation:auto;mix-blend-mode:normal;color-interpolation:sRGB;color-interpolation-filters:linearRGB;solid-color:#000000;solid-opacity:1;fill:#006000;fill-opacity:1;fill-rule:evenodd;stroke:none;stroke-width:0.354;stroke-linecap:square;stroke-linejoin:miter;stroke-miterlimit:4;stroke-dasharray:none;stroke-dashoffset:0;stroke-opacity:1;marker:none;color-rendering:auto;image-rendering:auto;shape-rendering:auto;text-rendering:auto;enable-background:accumulate" d="m -120.96088,592.4745 a 30,30 0 0 0 -30,30 30,30 0 0 0 30,30 h 30 v -30 a 30,30 0 0 0 -30,-30 z" id="rect4149-6-1-1-0"/>
            <path style="color:#000000;clip-rule:nonzero;display:inline;overflow:visible;visibility:visible;opacity:1;isolation:auto;mix-blend-mode:normal;color-interpolation:sRGB;color-interpolation-filters:linearRGB;solid-color:#000000;solid-opacity:1;fill:#00a040;fill-opacity:1;fill-rule:evenodd;stroke:none;stroke-width:0.354;stroke-linecap:square;stroke-linejoin:miter;stroke-miterlimit:4;stroke-dasharray:none;stroke-dashoffset:0;stroke-opacity:1;marker:none;color-rendering:auto;image-rendering:auto;shape-rendering:auto;text-rendering:auto;enable-background:accumulate" d="m -55.96088,592.47537 a 30,30 0 0 1 30,30 30,30 0 0 1 -30,30 h -30 v -30 a 30,30 0 0 1 30,-30 z" id="rect4149-3-1-6-0-8"/>
            <path style="color:#000000;clip-rule:nonzero;display:inline;overflow:visible;visibility:visible;opacity:1;isolation:auto;mix-blend-mode:normal;color-interpolation:sRGB;color-interpolation-filters:linearRGB;solid-color:#000000;solid-opacity:1;fill:#905c08;fill-opacity:1;fill-rule:evenodd;stroke:none;stroke-width:0.354;stroke-linecap:square;stroke-linejoin:miter;stroke-miterlimit:4;stroke-dasharray:none;stroke-dashoffset:0;stroke-opacity:1;marker:none;color-rendering:auto;image-rendering:auto;shape-rendering:auto;text-rendering:auto;enable-background:accumulate" d="m -120.96088,717.47624 a 30,30 0 0 1 -30,-30 30,30 0 0 1 30,-30 h 30 v 30 a 30,30 0 0 1 -30,30 z" id="rect4149-4-1-7-8-1"/>
            <path style="color:#000000;clip-rule:nonzero;display:inline;overflow:visible;visibility:visible;opacity:1;isolation:auto;mix-blend-mode:normal;color-interpolation:sRGB;color-interpolation-filters:linearRGB;solid-color:#000000;solid-opacity:1;fill:#a0c018;fill-opacity:1;fill-rule:evenodd;stroke:none;stroke-width:0.354;stroke-linecap:square;stroke-linejoin:miter;stroke-miterlimit:4;stroke-dasharray:none;stroke-dashoffset:0;stroke-opacity:1;marker:none;color-rendering:auto;image-rendering:auto;shape-rendering:auto;text-rendering:auto;enable-background:accumulate" d="m -55.96088,717.47537 a 30,30 0 0 0 30,-30 30,30 0 0 0 -30,-30 h -30 v 30 a 30,30 0 0 0 30,30 z" id="rect4149-3-5-9-6-6-6"/>
          </g>
          
        </g>
      </g>
    </g>
  </g>
</svg>